<svg width="1440" height="900" viewBox="0 0 1440 900" fill="none" xmlns="http://www.w3.org/2000/svg">
  <rect width="1440" height="900" fill="#EDE6DA"/>
  <rect x="36" y="32" width="1368" height="836" rx="28" fill="#F8F4EC"/>
  <rect x="36" y="32" width="1368" height="836" rx="28" stroke="#D9D0C2"/>
  <rect x="36" y="32" width="248" height="836" rx="28" fill="#183923"/>
  <text x="76" y="94" fill="#F4F8F0" font-family="Arial, Helvetica, sans-serif" font-size="32" font-weight="700">OrbitOps AI</text>
  <text x="76" y="130" fill="#9FB79E" font-family="Arial, Helvetica, sans-serif" font-size="16">Operations workflow hub</text>
  <rect x="64" y="182" width="192" height="54" rx="16" fill="#F1F8E9"/>
  <text x="94" y="216" fill="#183923" font-family="Arial, Helvetica, sans-serif" font-size="18" font-weight="700">Dashboard</text>
  <text x="76" y="286" fill="#F4F8F0" font-family="Arial, Helvetica, sans-serif" font-size="18">Workflow templates</text>
  <text x="76" y="336" fill="#F4F8F0" font-family="Arial, Helvetica, sans-serif" font-size="18">Run history</text>
  <text x="76" y="386" fill="#F4F8F0" font-family="Arial, Helvetica, sans-serif" font-size="18">Review queue</text>
  <text x="76" y="436" fill="#F4F8F0" font-family="Arial, Helvetica, sans-serif" font-size="18">Provider health</text>
  <text x="76" y="486" fill="#F4F8F0" font-family="Arial, Helvetica, sans-serif" font-size="18">Admin controls</text>
  <rect x="324" y="72" width="1040" height="126" rx="24" fill="#FFFDFC" stroke="#E4DBCF"/>
  <text x="364" y="122" fill="#6C645B" font-family="Arial, Helvetica, sans-serif" font-size="16" letter-spacing="1.6">LIVE OPERATIONS SNAPSHOT</text>
  <text x="364" y="166" fill="#1E1B18" font-family="Arial, Helvetica, sans-serif" font-size="40" font-weight="700">Multi-model workflows with review-ready output.</text>
  <rect x="324" y="228" width="242" height="124" rx="22" fill="#FFFFFF" stroke="#E4DBCF"/>
  <rect x="588" y="228" width="242" height="124" rx="22" fill="#FFFFFF" stroke="#E4DBCF"/>
  <rect x="852" y="228" width="242" height="124" rx="22" fill="#FFFFFF" stroke="#E4DBCF"/>
  <rect x="1116" y="228" width="248" height="124" rx="22" fill="#E7F3DF" stroke="#C7DBBB"/>
  <text x="352" y="270" fill="#7A7269" font-family="Arial, Helvetica, sans-serif" font-size="15">Active workflows</text>
  <text x="352" y="322" fill="#1E1B18" font-family="Arial, Helvetica, sans-serif" font-size="38" font-weight="700">12</text>
  <text x="616" y="270" fill="#7A7269" font-family="Arial, Helvetica, sans-serif" font-size="15">Validation pass rate</text>
  <text x="616" y="322" fill="#1E1B18" font-family="Arial, Helvetica, sans-serif" font-size="38" font-weight="700">98.4%</text>
  <text x="880" y="270" fill="#7A7269" font-family="Arial, Helvetica, sans-serif" font-size="15">Approvals pending</text>
  <text x="880" y="322" fill="#1E1B18" font-family="Arial, Helvetica, sans-serif" font-size="38" font-weight="700">17</text>
  <text x="1144" y="270" fill="#426B3F" font-family="Arial, Helvetica, sans-serif" font-size="15">Primary provider health</text>
  <text x="1144" y="322" fill="#183923" font-family="Arial, Helvetica, sans-serif" font-size="38" font-weight="700">Online</text>
  <rect x="324" y="388" width="670" height="424" rx="24" fill="#FFFFFF" stroke="#E4DBCF"/>
  <text x="360" y="434" fill="#6C645B" font-family="Arial, Helvetica, sans-serif" font-size="16" letter-spacing="1.3">WORKFLOW PERFORMANCE</text>
  <rect x="360" y="472" width="598" height="76" rx="18" fill="#F6F1E8"/>
  <text x="388" y="504" fill="#1E1B18" font-family="Arial, Helvetica, sans-serif" font-size="22" font-weight="700">Vendor Intake Review</text>
  <text x="388" y="530" fill="#6C645B" font-family="Arial, Helvetica, sans-serif" font-size="16">Anthropic primary, OpenAI fallback, reviewer required</text>
  <rect x="804" y="490" width="118" height="38" rx="14" fill="#DCEFCF"/>
  <text x="833" y="514" fill="#265229" font-family="Arial, Helvetica, sans-serif" font-size="15" font-weight="700">Healthy</text>
  <rect x="360" y="568" width="598" height="76" rx="18" fill="#F6F1E8"/>
  <text x="388" y="600" fill="#1E1B18" font-family="Arial, Helvetica, sans-serif" font-size="22" font-weight="700">Policy Delta Check</text>
  <text x="388" y="626" fill="#6C645B" font-family="Arial, Helvetica, sans-serif" font-size="16">OpenAI primary, Google fallback, legal ops review lane</text>
  <rect x="804" y="586" width="132" height="38" rx="14" fill="#FFF0D8"/>
  <text x="826" y="610" fill="#9A5B0E" font-family="Arial, Helvetica, sans-serif" font-size="15" font-weight="700">Needs review</text>
  <rect x="360" y="664" width="598" height="76" rx="18" fill="#F6F1E8"/>
  <text x="388" y="696" fill="#1E1B18" font-family="Arial, Helvetica, sans-serif" font-size="22" font-weight="700">Claims Summary Queue</text>
  <text x="388" y="722" fill="#6C645B" font-family="Arial, Helvetica, sans-serif" font-size="16">Google primary, Anthropic fallback, fast throughput mode</text>
  <rect x="804" y="682" width="118" height="38" rx="14" fill="#DCEFCF"/>
  <text x="833" y="706" fill="#265229" font-family="Arial, Helvetica, sans-serif" font-size="15" font-weight="700">Healthy</text>
  <rect x="1022" y="388" width="342" height="424" rx="24" fill="#1D2C22"/>
  <text x="1056" y="434" fill="#A6C0A4" font-family="Arial, Helvetica, sans-serif" font-size="16" letter-spacing="1.3">RUN HISTORY</text>
  <text x="1056" y="488" fill="#F2F7EE" font-family="Arial, Helvetica, sans-serif" font-size="20" font-weight="700">RUN-1842</text>
  <text x="1056" y="514" fill="#D6E3D2" font-family="Arial, Helvetica, sans-serif" font-size="15">Vendor Intake Review</text>
  <text x="1244" y="500" fill="#9DD89B" font-family="Arial, Helvetica, sans-serif" font-size="15" font-weight="700">Approved</text>
  <line x1="1056" y1="540" x2="1328" y2="540" stroke="#39513E"/>
  <text x="1056" y="588" fill="#F2F7EE" font-family="Arial, Helvetica, sans-serif" font-size="20" font-weight="700">RUN-1841</text>
  <text x="1056" y="614" fill="#D6E3D2" font-family="Arial, Helvetica, sans-serif" font-size="15">Policy Delta Check</text>
  <text x="1232" y="600" fill="#F0C77A" font-family="Arial, Helvetica, sans-serif" font-size="15" font-weight="700">In review</text>
  <line x1="1056" y1="640" x2="1328" y2="640" stroke="#39513E"/>
  <text x="1056" y="688" fill="#F2F7EE" font-family="Arial, Helvetica, sans-serif" font-size="20" font-weight="700">RUN-1839</text>
  <text x="1056" y="714" fill="#D6E3D2" font-family="Arial, Helvetica, sans-serif" font-size="15">Claims Summary Queue</text>
  <text x="1218" y="700" fill="#B4D0FF" font-family="Arial, Helvetica, sans-serif" font-size="15" font-weight="700">Fallback used</text>
</svg>
